<svg width="73" height="31" viewBox="0 0 73 31" fill="none" xmlns="http://www.w3.org/2000/svg">
<path d="M10.5503 18.5681V17.8481H11.1263C11.7663 17.8481 12.3503 17.6921 12.8783 17.3801C13.4063 17.0681 13.8263 16.6481 14.1383 16.1201C14.4503 15.5921 14.6063 15.0081 14.6063 14.3681V11.3921C14.6223 11.0481 14.6703 10.7921 14.7503 10.6241C14.8383 10.4481 14.9983 10.2841 15.2303 10.1321C15.4703 9.98015 15.8223 9.76815 16.2863 9.49615C15.8383 9.23215 15.4943 9.02415 15.2543 8.87215C15.0223 8.71215 14.8583 8.54415 14.7623 8.36815C14.6743 8.18415 14.6223 7.92015 14.6063 7.57615V4.60015C14.6063 3.96015 14.4463 3.37615 14.1263 2.84815C13.8143 2.32015 13.3943 1.90015 12.8663 1.58815C12.3383 1.27615 11.7583 1.12015 11.1263 1.12015H10.5503V0.400146H11.1263C11.9023 0.400146 12.6063 0.592147 13.2383 0.976147C13.8783 1.35215 14.3863 1.86015 14.7623 2.50015C15.1383 3.13215 15.3263 3.83215 15.3263 4.60015V7.55215C15.3423 7.84815 15.4543 8.06815 15.6623 8.21215C15.8783 8.35615 16.1183 8.47215 16.3823 8.56015C16.6543 8.64815 16.8903 8.75615 17.0903 8.88415C17.2903 9.01215 17.3903 9.21615 17.3903 9.49615C17.3903 9.74415 17.2903 9.93215 17.0903 10.0601C16.8903 10.1801 16.6543 10.2881 16.3823 10.3841C16.1183 10.4801 15.8783 10.6001 15.6623 10.7441C15.4543 10.8881 15.3423 11.1121 15.3263 11.4161V14.3681C15.3263 15.1361 15.1383 15.8401 14.7623 16.4801C14.3863 17.1121 13.8783 17.6161 13.2383 17.9921C12.6063 18.3761 11.9023 18.5681 11.1263 18.5681H10.5503Z" fill="black"/>
<path d="M7.58529 18.5681C6.80929 18.5681 6.10129 18.3761 5.46129 17.9921C4.82929 17.6161 4.32529 17.1121 3.94929 16.4801C3.57329 15.8401 3.38529 15.1361 3.38529 14.3681V11.4161C3.36929 11.1121 3.25329 10.8881 3.03729 10.7441C2.82929 10.6001 2.58929 10.4801 2.31729 10.3841C2.05329 10.2881 1.82129 10.1801 1.62129 10.0601C1.42129 9.93215 1.32129 9.74415 1.32129 9.49615C1.32129 9.21615 1.42129 9.01215 1.62129 8.88415C1.82129 8.75615 2.05329 8.64815 2.31729 8.56015C2.58929 8.47215 2.82929 8.35615 3.03729 8.21215C3.25329 8.06815 3.36929 7.84815 3.38529 7.55215V4.60015C3.38529 3.83215 3.57329 3.13215 3.94929 2.50015C4.32529 1.86015 4.82929 1.35215 5.46129 0.976147C6.10129 0.592147 6.80929 0.400146 7.58529 0.400146H8.16129V1.12015H7.58529C6.95329 1.12015 6.37329 1.27615 5.84529 1.58815C5.31729 1.90015 4.89329 2.32015 4.57329 2.84815C4.26129 3.37615 4.10529 3.96015 4.10529 4.60015V7.57615C4.08929 7.92015 4.03329 8.18415 3.93729 8.36815C3.84929 8.54415 3.68529 8.71215 3.44529 8.87215C3.21329 9.02415 2.87329 9.23215 2.42529 9.49615C2.88929 9.76815 3.23729 9.98015 3.46929 10.1321C3.70929 10.2841 3.86929 10.4481 3.94929 10.6241C4.03729 10.7921 4.08929 11.0481 4.10529 11.3921V14.3681C4.10529 15.0081 4.26129 15.5921 4.57329 16.1201C4.88529 16.6481 5.30529 17.0681 5.83329 17.3801C6.36129 17.6921 6.94529 17.8481 7.58529 17.8481H8.16129V18.5681H7.58529Z" fill="black"/>
<path d="M15.3257 14.3682V11.416C15.3417 11.1122 15.4538 10.8881 15.6616 10.7441C15.8776 10.6001 16.1183 10.4798 16.3823 10.3838C16.6542 10.2878 16.8904 10.1805 17.0903 10.0605L17.2954 10.4033C17.0678 10.5398 16.8066 10.6589 16.5151 10.7617L16.5142 10.7607C16.282 10.8455 16.0749 10.9508 15.8901 11.0732L15.8296 11.126C15.7751 11.1868 15.7352 11.2782 15.7261 11.4297V14.3682C15.7261 15.2048 15.5203 15.979 15.1069 16.6826L15.106 16.6846C14.6961 17.3735 14.1401 17.9235 13.4448 18.333L13.4458 18.334C12.7481 18.7579 11.9718 18.9677 11.1265 18.9678H10.1499V17.4482H11.1265V17.8486H10.5503V18.5684H11.1265L11.4136 18.5596C12.0768 18.5176 12.6848 18.3281 13.2378 17.9922C13.7978 17.6632 14.2569 17.236 14.6147 16.7109L14.7622 16.4805C15.1382 15.8405 15.3257 15.1362 15.3257 14.3682ZM14.2065 14.3682V11.374C14.2233 11.0144 14.2743 10.6933 14.3892 10.4521L14.3921 10.4453C14.5221 10.1854 14.7431 9.97355 15.0112 9.79785L15.0161 9.79395C15.147 9.71106 15.3092 9.61127 15.5024 9.49512C15.3211 9.38561 15.1673 9.29022 15.0405 9.20996L15.0337 9.20605L15.0269 9.20117C14.763 9.01919 14.5463 8.80818 14.4106 8.55957L14.4058 8.55078L14.4009 8.54102C14.2792 8.28662 14.2236 7.96038 14.2065 7.59473V4.60059C14.2065 4.03088 14.0644 3.51879 13.7837 3.05566L13.7817 3.05176C13.5041 2.58185 13.1325 2.21029 12.6626 1.93262C12.1983 1.65824 11.689 1.52057 11.1265 1.52051H10.1499V0H11.1265V0.400391H10.5503V1.12012H11.1265C11.7582 1.12018 12.3379 1.27611 12.8657 1.58789C13.3937 1.89989 13.8145 2.32063 14.1265 2.84863C14.4463 3.37651 14.606 3.96078 14.606 4.60059V7.57617C14.622 7.92017 14.6742 8.18416 14.7622 8.36816C14.8582 8.54416 15.0224 8.71208 15.2544 8.87207C15.4943 9.02402 15.8379 9.23226 16.2856 9.49609C15.8218 9.76798 15.4699 9.97987 15.23 10.1318C14.9981 10.2838 14.8385 10.4481 14.7505 10.624L14.6958 10.7666C14.6478 10.9256 14.618 11.1346 14.606 11.3926V14.3682C14.606 15.0081 14.4501 15.5921 14.1382 16.1201L14.0161 16.3135C13.7196 16.7516 13.3402 17.107 12.8784 17.3799L12.6772 17.4902C12.2709 17.6948 11.833 17.8115 11.3638 17.8408L11.1265 17.8486V17.4482C11.6978 17.4482 12.2109 17.3099 12.6743 17.0361C13.1441 16.7585 13.5158 16.3867 13.7935 15.917C14.0674 15.4534 14.2065 14.9398 14.2065 14.3682ZM17.3901 9.49609C17.3901 9.25116 17.3137 9.06415 17.1606 8.93555L17.0903 8.88379C16.9404 8.78783 16.77 8.70336 16.5796 8.62988L16.3823 8.56055C16.1183 8.47255 15.8776 8.35591 15.6616 8.21191C15.4539 8.06791 15.3417 7.84754 15.3257 7.55176V4.60059C15.3257 3.9285 15.182 3.30817 14.894 2.74023L14.7622 2.5C14.4332 1.94005 14.0033 1.4809 13.4722 1.12305L13.2378 0.976562C12.6848 0.64056 12.0769 0.451159 11.4136 0.40918L11.1265 0.400391V0C11.9694 6.06761e-05 12.7438 0.209336 13.4399 0.630859C14.1381 1.04105 14.6955 1.59792 15.106 2.2959L15.2515 2.56055C15.5685 3.18629 15.7261 3.86855 15.7261 4.60059V7.53711C15.7375 7.72486 15.8 7.8184 15.8843 7.87891L16.0269 7.96777C16.1729 8.05104 16.3322 8.12176 16.5054 8.17969L16.7231 8.25684C16.9354 8.33871 17.1307 8.43456 17.3062 8.54688C17.643 8.76251 17.7905 9.10824 17.7905 9.49609C17.7905 9.87312 17.627 10.1921 17.3062 10.3975L17.2964 10.4033L17.0903 10.0605C17.2654 9.94847 17.3635 9.79002 17.3853 9.58594L17.3901 9.49609Z" fill="white"/>
<path d="M2.98486 14.3682V11.4297C2.97294 11.2326 2.90648 11.1377 2.81592 11.0771L2.81006 11.0732C2.63504 10.9521 2.42715 10.8475 2.18408 10.7617L2.18018 10.7598C1.89707 10.6568 1.64121 10.5387 1.41553 10.4033L1.40576 10.3975C1.08486 10.1921 0.921387 9.87318 0.921387 9.49609C0.921412 9.1082 1.06884 8.76251 1.40576 8.54688C1.63783 8.39838 1.90087 8.27735 2.19092 8.18066L2.19385 8.17969C2.43341 8.10218 2.63806 8.00286 2.81006 7.88379L2.88037 7.8252C2.93857 7.76377 2.97631 7.67643 2.98486 7.53711V4.60059C2.98486 3.76485 3.19044 2.99392 3.604 2.29785L3.76514 2.04297C4.15453 1.46383 4.65171 0.992193 5.25537 0.632812C5.96006 0.210008 6.73998 0 7.58545 0V0.400391L7.29736 0.40918C6.6333 0.451201 6.02138 0.640591 5.46143 0.976562L5.22998 1.12305C4.70512 1.48085 4.27866 1.94017 3.94971 2.5L3.81689 2.74023C3.52902 3.30811 3.38525 3.92858 3.38525 4.60059V7.55176C3.36926 7.84762 3.2534 8.06791 3.0376 8.21191L2.87549 8.31543C2.70752 8.4129 2.52085 8.49456 2.31689 8.56055C2.05326 8.64846 1.82137 8.75597 1.62158 8.88379L1.55127 8.93555C1.398 9.06416 1.3218 9.25101 1.32178 9.49609L1.32568 9.58594C1.34746 9.79004 1.44645 9.94846 1.62158 10.0605C1.82137 10.1804 2.05326 10.2879 2.31689 10.3838C2.58889 10.4798 2.8296 10.6001 3.0376 10.7441C3.25346 10.8881 3.36922 11.1122 3.38525 11.416V14.3682C3.38525 15.1362 3.57371 15.8405 3.94971 16.4805C4.32568 17.1123 4.82955 17.6163 5.46143 17.9922C6.02137 18.3281 6.63332 18.5176 7.29736 18.5596L7.58545 18.5684H8.16162V17.8486H7.58545V17.4482H8.56104V18.9678H7.58545C6.74016 18.9678 5.96092 18.7576 5.25635 18.335V18.3359C4.56724 17.9259 4.01597 17.3737 3.60596 16.6846L3.604 16.6826C3.19077 15.9791 2.98486 15.2047 2.98486 14.3682ZM4.10498 14.3682V11.3926C4.08898 11.0486 4.0377 10.792 3.94971 10.624C3.86971 10.448 3.70924 10.2838 3.46924 10.1318C3.23724 9.97985 2.88913 9.768 2.42529 9.49609C2.64914 9.36418 2.84619 9.24653 3.01611 9.14258L3.4458 8.87207C3.68555 8.71218 3.84904 8.54403 3.93701 8.36816C4.03301 8.18416 4.08898 7.92017 4.10498 7.57617V4.60059C4.10498 3.96065 4.26179 3.37659 4.57373 2.84863C4.89373 2.32063 5.31721 1.89989 5.84521 1.58789C6.30728 1.31486 6.80936 1.16202 7.35107 1.12793L7.58545 1.12012H8.16162V0.400391H7.58545V0H8.56104V1.52051H7.58545C7.02288 1.52051 6.51366 1.65831 6.04932 1.93262C5.5785 2.21083 5.20158 2.58368 4.91553 3.05566C4.6431 3.51827 4.50537 4.03052 4.50537 4.60059V7.59473C4.48838 7.9601 4.42697 8.28817 4.29443 8.5459L4.29541 8.54688C4.1651 8.80749 3.94016 9.02327 3.66748 9.20508L3.66455 9.20703C3.53992 9.28868 3.38613 9.38426 3.20459 9.49512C3.39544 9.61098 3.55532 9.71036 3.68311 9.79395C3.95972 9.96913 4.18996 10.1862 4.31396 10.459H4.31299C4.4347 10.7028 4.48897 11.0214 4.50537 11.374V14.3682C4.50537 14.9398 4.64352 15.4534 4.91748 15.917C5.19514 16.3868 5.56676 16.7585 6.03662 17.0361C6.50025 17.3101 7.01378 17.4482 7.58545 17.4482V17.8486L7.34814 17.8408C6.87855 17.8116 6.44026 17.695 6.03369 17.4902L5.8335 17.3799C5.37165 17.107 4.99238 16.7517 4.6958 16.3135L4.57373 16.1201C4.26173 15.5921 4.10498 15.0082 4.10498 14.3682Z" fill="white"/>
<path d="M12.4539 9.71446C12.4214 9.72342 12.3901 9.73608 12.3606 9.75218C12.3492 9.75804 12.3381 9.76439 12.3273 9.77122C12.3209 9.7753 12.3145 9.77956 12.3083 9.78397C12.3028 9.78816 12.2974 9.79248 12.2921 9.79693C12.2867 9.8014 12.2813 9.806 12.2761 9.81072C12.2709 9.81513 12.2659 9.81966 12.2609 9.8243C12.1976 9.88483 12.1539 9.96287 12.1352 10.0484C12.1165 10.134 12.1238 10.2231 12.1561 10.3045L15.6953 24.3317C15.7163 24.415 15.7612 24.4903 15.8245 24.5484C15.8878 24.6064 15.9667 24.6447 16.0515 24.6585C16.1363 24.6722 16.2233 24.6609 16.3017 24.6258C16.3801 24.5907 16.4466 24.5334 16.4928 24.461L18.8563 20.7679L22.7976 25.8961C22.8332 25.9425 22.8777 25.9813 22.9285 26.0103C22.9794 26.0392 23.0354 26.0578 23.0935 26.0649C23.1515 26.0719 23.2104 26.0673 23.2667 26.0514C23.323 26.0354 23.3755 26.0084 23.4212 25.9719L25.0832 24.6449C25.1286 24.6088 25.1663 24.5641 25.1943 24.5133C25.2223 24.4626 25.24 24.4068 25.2464 24.3492C25.2528 24.2916 25.2477 24.2333 25.2315 24.1776C25.2153 24.122 25.1882 24.0701 25.1519 24.0249L21.1139 19.0053L25.3639 17.5342C25.4444 17.5063 25.5151 17.4557 25.5674 17.3885C25.6197 17.3213 25.6514 17.2404 25.6586 17.1555C25.6658 17.0707 25.6482 16.9855 25.608 16.9105C25.5678 16.8354 25.5066 16.7736 25.432 16.7326L12.8344 9.7895C12.7809 9.74875 12.7188 9.72079 12.6529 9.70779C12.5869 9.69478 12.5188 9.69706 12.4539 9.71446ZM13.244 11.0192L24.1421 17.0262L20.2351 18.378C20.1684 18.401 20.1083 18.4397 20.0597 18.4909C20.0111 18.542 19.9756 18.6041 19.956 18.6718C19.9364 18.7396 19.9334 18.811 19.9473 18.8802C19.9611 18.9493 19.9913 19.0141 20.0354 19.0692L24.1888 24.2333L23.2223 25.0046L19.1725 19.7345C19.1295 19.6784 19.0736 19.6335 19.0095 19.6036C18.9455 19.5738 18.8752 19.5597 18.8045 19.5628C18.7339 19.5658 18.6651 19.5858 18.6038 19.6211C18.5426 19.6564 18.4907 19.7059 18.4527 19.7654L16.2996 23.1298L13.244 11.0192Z" fill="black"/>
<path d="M66.042 24.4219C64.938 24.4219 63.93 24.1379 63.018 23.5699C62.114 23.0019 61.39 22.2419 60.846 21.2899C60.31 20.3299 60.042 19.2699 60.042 18.1099C60.042 17.2299 60.198 16.4099 60.51 15.6499C60.822 14.8819 61.25 14.2099 61.794 13.6339C62.346 13.0499 62.986 12.5939 63.714 12.2659C64.442 11.9379 65.218 11.7739 66.042 11.7739C67.146 11.7739 68.15 12.0579 69.054 12.6259C69.966 13.1939 70.69 13.9579 71.226 14.9179C71.77 15.8779 72.042 16.9419 72.042 18.1099C72.042 18.9819 71.886 19.7979 71.574 20.5579C71.262 21.3179 70.83 21.9899 70.278 22.5739C69.734 23.1499 69.098 23.6019 68.37 23.9299C67.65 24.2579 66.874 24.4219 66.042 24.4219ZM66.042 22.4059C66.794 22.4059 67.47 22.2099 68.07 21.8179C68.678 21.4179 69.154 20.8939 69.498 20.2459C69.85 19.5899 70.026 18.8779 70.026 18.1099C70.026 17.3259 69.846 16.6059 69.486 15.9499C69.134 15.2939 68.658 14.7699 68.058 14.3779C67.458 13.9859 66.786 13.7899 66.042 13.7899C65.29 13.7899 64.614 13.9899 64.014 14.3899C63.414 14.7819 62.938 15.3059 62.586 15.9619C62.234 16.6179 62.058 17.3339 62.058 18.1099C62.058 18.9099 62.238 19.6379 62.598 20.2939C62.958 20.9419 63.442 21.4579 64.05 21.8419C64.658 22.2179 65.322 22.4059 66.042 22.4059Z" fill="black"/>
<path d="M59.3609 24.1099H57.0449L53.8529 18.6019L51.6449 21.2419V24.1099H49.6289V6.10986H51.6449V18.1099L56.6729 12.1099H59.3009L55.2209 16.9699L59.3609 24.1099Z" fill="black"/>
<path d="M44.6605 12.11H46.6765V24.11H44.6605V12.11ZM45.6925 10.154C45.3725 10.154 45.1045 10.05 44.8885 9.84197C44.6725 9.63397 44.5645 9.37397 44.5645 9.06197C44.5645 8.74997 44.6725 8.48997 44.8885 8.28197C45.1045 8.07397 45.3685 7.96997 45.6805 7.96997C45.9925 7.96997 46.2565 8.07397 46.4725 8.28197C46.6885 8.48997 46.7965 8.74997 46.7965 9.06197C46.7965 9.37397 46.6885 9.63397 46.4725 9.84197C46.2645 10.05 46.0045 10.154 45.6925 10.154Z" fill="black"/>
<path d="M32.2383 24.1098V7.30981H37.7823C38.6863 7.30981 39.4983 7.52981 40.2183 7.96982C40.9463 8.40981 41.5223 9.00581 41.9463 9.75781C42.3783 10.5018 42.5943 11.3338 42.5943 12.2538C42.5943 13.1898 42.3743 14.0338 41.9343 14.7858C41.5023 15.5298 40.9183 16.1218 40.1823 16.5618C39.4543 16.9938 38.6543 17.2098 37.7823 17.2098H34.2543V24.1098H32.2383ZM34.2543 15.1938H37.6023C38.1463 15.1938 38.6423 15.0618 39.0903 14.7978C39.5463 14.5258 39.9063 14.1618 40.1703 13.7058C40.4423 13.2418 40.5783 12.7218 40.5783 12.1458C40.5783 11.5618 40.4423 11.0418 40.1703 10.5858C39.9063 10.1218 39.5463 9.75781 39.0903 9.49381C38.6423 9.22181 38.1463 9.08581 37.6023 9.08581H34.2543V15.1938Z" fill="black"/>
</svg>
