<svg width="67" height="29" viewBox="0 0 67 29" fill="none" xmlns="http://www.w3.org/2000/svg">
<path d="M9.62891 19.2708V18.5508H10.2049C10.8449 18.5508 11.4289 18.3948 11.9569 18.0828C12.4849 17.7708 12.9049 17.3508 13.2169 16.8228C13.5289 16.2948 13.6849 15.7108 13.6849 15.0708V12.0948C13.7009 11.7508 13.7489 11.4948 13.8289 11.3268C13.9169 11.1508 14.0769 10.9868 14.3089 10.8348C14.5489 10.6828 14.9009 10.4708 15.3649 10.1988C14.9169 9.93478 14.5729 9.72679 14.3329 9.57479C14.1009 9.41478 13.9369 9.24678 13.8409 9.07078C13.7529 8.88678 13.7009 8.62278 13.6849 8.27878V5.30278C13.6849 4.66278 13.5249 4.07878 13.2049 3.55078C12.8929 3.02278 12.4729 2.60278 11.9449 2.29078C11.4169 1.97878 10.8369 1.82278 10.2049 1.82278H9.62891V1.10278H10.2049C10.9809 1.10278 11.6849 1.29478 12.3169 1.67878C12.9569 2.05478 13.4649 2.56278 13.8409 3.20278C14.2169 3.83478 14.4049 4.53478 14.4049 5.30278V8.25478C14.4209 8.55078 14.5329 8.77078 14.7409 8.91478C14.9569 9.05878 15.1969 9.17479 15.4609 9.26278C15.7329 9.35078 15.9689 9.45878 16.1689 9.58678C16.3689 9.71478 16.4689 9.91878 16.4689 10.1988C16.4689 10.4468 16.3689 10.6348 16.1689 10.7628C15.9689 10.8828 15.7329 10.9908 15.4609 11.0868C15.1969 11.1828 14.9569 11.3028 14.7409 11.4468C14.5329 11.5908 14.4209 11.8148 14.4049 12.1188V15.0708C14.4049 15.8388 14.2169 16.5428 13.8409 17.1828C13.4649 17.8148 12.9569 18.3188 12.3169 18.6948C11.6849 19.0788 10.9809 19.2708 10.2049 19.2708H9.62891Z" fill="black"/>
<path d="M6.6639 19.2708C5.8879 19.2708 5.1799 19.0788 4.5399 18.6948C3.9079 18.3188 3.4039 17.8148 3.0279 17.1828C2.6519 16.5428 2.4639 15.8388 2.4639 15.0708V12.1188C2.4479 11.8148 2.3319 11.5908 2.1159 11.4468C1.9079 11.3028 1.6679 11.1828 1.3959 11.0868C1.1319 10.9908 0.899902 10.8828 0.699902 10.7628C0.499902 10.6348 0.399902 10.4468 0.399902 10.1988C0.399902 9.91878 0.499902 9.71478 0.699902 9.58678C0.899902 9.45878 1.1319 9.35078 1.3959 9.26278C1.6679 9.17479 1.9079 9.05878 2.1159 8.91478C2.3319 8.77078 2.4479 8.55078 2.4639 8.25478V5.30278C2.4639 4.53478 2.6519 3.83478 3.0279 3.20278C3.4039 2.56278 3.9079 2.05478 4.5399 1.67878C5.1799 1.29478 5.8879 1.10278 6.6639 1.10278H7.2399V1.82278H6.6639C6.0319 1.82278 5.4519 1.97878 4.9239 2.29078C4.3959 2.60278 3.9719 3.02278 3.6519 3.55078C3.3399 4.07878 3.1839 4.66278 3.1839 5.30278V8.27878C3.1679 8.62278 3.1119 8.88678 3.0159 9.07078C2.9279 9.24678 2.7639 9.41478 2.5239 9.57479C2.2919 9.72679 1.9519 9.93478 1.5039 10.1988C1.9679 10.4708 2.3159 10.6828 2.5479 10.8348C2.7879 10.9868 2.9479 11.1508 3.0279 11.3268C3.1159 11.4948 3.1679 11.7508 3.1839 12.0948V15.0708C3.1839 15.7108 3.3399 16.2948 3.6519 16.8228C3.9639 17.3508 4.3839 17.7708 4.9119 18.0828C5.4399 18.3948 6.0239 18.5508 6.6639 18.5508H7.2399V19.2708H6.6639Z" fill="black"/>
<path d="M14.4043 15.0708V12.1187C14.4203 11.8149 14.5325 11.5908 14.7402 11.4468C14.9562 11.3028 15.1969 11.1824 15.4609 11.0864C15.7328 10.9905 15.969 10.8831 16.1689 10.7632L16.374 11.106C16.1465 11.2425 15.8852 11.3615 15.5938 11.4644L15.5928 11.4634C15.3606 11.5482 15.1535 11.6535 14.9688 11.7759L14.9082 11.8286C14.8537 11.8895 14.8138 11.9808 14.8047 12.1323V15.0708C14.8047 15.9074 14.5989 16.6817 14.1855 17.3853L14.1846 17.3872C13.7747 18.0761 13.2187 18.6261 12.5234 19.0356L12.5244 19.0366C11.8268 19.4605 11.0504 19.6703 10.2051 19.6704H9.22852V18.1509H10.2051V18.5513H9.62891V19.271H10.2051L10.4922 19.2622C11.1554 19.2202 11.7634 19.0308 12.3164 18.6948C12.8764 18.3658 13.3355 17.9386 13.6934 17.4136L13.8408 17.1831C14.2168 16.5431 14.4043 15.8388 14.4043 15.0708ZM13.2852 15.0708V12.0767C13.3019 11.717 13.3529 11.396 13.4678 11.1548L13.4707 11.1479C13.6007 10.888 13.8217 10.6762 14.0898 10.5005L14.0947 10.4966C14.2256 10.4137 14.3878 10.3139 14.5811 10.1978C14.3998 10.0882 14.2459 9.99286 14.1191 9.9126L14.1123 9.90869L14.1055 9.90381C13.8417 9.72183 13.6249 9.51082 13.4893 9.26221L13.4844 9.25342L13.4795 9.24365C13.3578 8.98925 13.3022 8.66301 13.2852 8.29736V5.30322C13.2852 4.73352 13.143 4.22143 12.8623 3.7583L12.8604 3.75439C12.5827 3.28449 12.2111 2.91293 11.7412 2.63525C11.2769 2.36088 10.7676 2.2232 10.2051 2.22314H9.22852V0.702637H10.2051V1.10303H9.62891V1.82275H10.2051C10.8368 1.82281 11.4165 1.97875 11.9443 2.29053C12.4723 2.60253 12.8931 3.02327 13.2051 3.55127C13.5249 4.07914 13.6846 4.66342 13.6846 5.30322V8.27881C13.7006 8.62281 13.7528 8.8868 13.8408 9.0708C13.9368 9.24679 14.101 9.41471 14.333 9.57471C14.5729 9.72666 14.9165 9.93489 15.3643 10.1987C14.9005 10.4706 14.5485 10.6825 14.3086 10.8345C14.0767 10.9864 13.9171 11.1508 13.8291 11.3267L13.7744 11.4692C13.7264 11.6282 13.6966 11.8372 13.6846 12.0952V15.0708C13.6846 15.7108 13.5288 16.2948 13.2168 16.8228L13.0947 17.0161C12.7982 17.4543 12.4188 17.8096 11.957 18.0825L11.7559 18.1929C11.3495 18.3975 10.9116 18.5142 10.4424 18.5435L10.2051 18.5513V18.1509C10.7765 18.1508 11.2895 18.0125 11.7529 17.7388C12.2227 17.4612 12.5944 17.0894 12.8721 16.6196C13.146 16.156 13.2852 15.6425 13.2852 15.0708ZM16.4688 10.1987C16.4687 9.9538 16.3923 9.76679 16.2393 9.63818L16.1689 9.58643C16.019 9.49046 15.8486 9.406 15.6582 9.33252L15.4609 9.26318C15.1969 9.17518 14.9562 9.05855 14.7402 8.91455C14.5325 8.77054 14.4203 8.55018 14.4043 8.25439V5.30322C14.4043 4.63114 14.2606 4.0108 13.9727 3.44287L13.8408 3.20264C13.5118 2.64269 13.0819 2.18354 12.5508 1.82568L12.3164 1.6792C11.7634 1.3432 11.1555 1.1538 10.4922 1.11182L10.2051 1.10303V0.702637C11.0481 0.702697 11.8224 0.911972 12.5186 1.3335C13.2168 1.74369 13.7741 2.30056 14.1846 2.99854L14.3301 3.26318C14.6471 3.88892 14.8047 4.57119 14.8047 5.30322V8.23975C14.8161 8.4275 14.8786 8.52103 14.9629 8.58154L15.1055 8.67041C15.2515 8.75368 15.4108 8.82439 15.584 8.88232L15.8018 8.95947C16.014 9.04135 16.2093 9.1372 16.3848 9.24951C16.7216 9.46515 16.8691 9.81088 16.8691 10.1987C16.8691 10.5758 16.7056 10.8947 16.3848 11.1001L16.375 11.106L16.1689 10.7632C16.3441 10.6511 16.4421 10.4927 16.4639 10.2886L16.4688 10.1987Z" fill="white"/>
<path d="M2.06348 15.0708V12.1323C2.05155 11.9352 1.98509 11.8403 1.89453 11.7798L1.88867 11.7759C1.71366 11.6547 1.50577 11.5501 1.2627 11.4644L1.25879 11.4624C0.97568 11.3594 0.719823 11.2414 0.494141 11.106L0.484375 11.1001C0.163473 10.8947 0 10.5758 0 10.1987C2.56701e-05 9.81083 0.14745 9.46514 0.484375 9.24951C0.716443 9.10102 0.979485 8.97998 1.26953 8.8833L1.27246 8.88232C1.51203 8.80482 1.71668 8.7055 1.88867 8.58643L1.95898 8.52783C2.01718 8.4664 2.05493 8.37907 2.06348 8.23975V5.30322C2.06348 4.46749 2.26906 3.69656 2.68262 3.00049L2.84375 2.74561C3.23314 2.16646 3.73032 1.69483 4.33398 1.33545C5.03867 0.912645 5.81859 0.702637 6.66406 0.702637V1.10303L6.37598 1.11182C5.71192 1.15384 5.09999 1.34323 4.54004 1.6792L4.30859 1.82568C3.78373 2.18349 3.35728 2.64281 3.02832 3.20264L2.89551 3.44287C2.60763 4.01075 2.46387 4.63122 2.46387 5.30322V8.25439C2.44787 8.55026 2.33202 8.77055 2.11621 8.91455L1.9541 9.01807C1.78613 9.11554 1.59947 9.1972 1.39551 9.26318C1.13187 9.3511 0.899986 9.45861 0.700195 9.58643L0.629883 9.63818C0.476618 9.7668 0.400412 9.95365 0.400391 10.1987L0.404297 10.2886C0.426069 10.4927 0.525059 10.6511 0.700195 10.7632C0.899987 10.883 1.13187 10.9905 1.39551 11.0864C1.66751 11.1824 1.90821 11.3028 2.11621 11.4468C2.33207 11.5908 2.44783 11.8148 2.46387 12.1187V15.0708C2.46387 15.8388 2.65232 16.5431 3.02832 17.1831C3.4043 17.8149 3.90816 18.3189 4.54004 18.6948C5.09998 19.0308 5.71193 19.2202 6.37598 19.2622L6.66406 19.271H7.24023V18.5513H6.66406V18.1509H7.63965V19.6704H6.66406C5.81877 19.6704 5.03953 19.4602 4.33496 19.0376V19.0386C3.64586 18.6285 3.09458 18.0764 2.68457 17.3872L2.68262 17.3853C2.26938 16.6817 2.06348 15.9073 2.06348 15.0708ZM3.18359 15.0708V12.0952C3.16759 11.7512 3.11632 11.4947 3.02832 11.3267C2.94832 11.1507 2.78785 10.9865 2.54785 10.8345C2.31585 10.6825 1.96775 10.4706 1.50391 10.1987C1.72775 10.0668 1.92481 9.94916 2.09473 9.84521L2.52441 9.57471C2.76416 9.41481 2.92766 9.24667 3.01562 9.0708C3.11162 8.8868 3.16759 8.62281 3.18359 8.27881V5.30322C3.18359 4.66329 3.34041 4.07923 3.65234 3.55127C3.97234 3.02327 4.39583 2.60253 4.92383 2.29053C5.38589 2.0175 5.88798 1.86466 6.42969 1.83057L6.66406 1.82275H7.24023V1.10303H6.66406V0.702637H7.63965V2.22314H6.66406C6.10149 2.22314 5.59227 2.36095 5.12793 2.63525C4.65712 2.91346 4.28019 3.28632 3.99414 3.7583C3.72171 4.2209 3.58398 4.73316 3.58398 5.30322V8.29736C3.56699 8.66274 3.50558 8.99081 3.37305 9.24854L3.37402 9.24951C3.24372 9.51012 3.01877 9.72591 2.74609 9.90771L2.74316 9.90967C2.61854 9.99132 2.46474 10.0869 2.2832 10.1978C2.47405 10.3136 2.63393 10.413 2.76172 10.4966C3.03833 10.6718 3.26858 10.8888 3.39258 11.1616H3.3916C3.51331 11.4054 3.56758 11.7241 3.58398 12.0767V15.0708C3.58398 15.6425 3.72213 16.156 3.99609 16.6196C4.27376 17.0895 4.64537 17.4611 5.11523 17.7388C5.57886 18.0127 6.09239 18.1509 6.66406 18.1509V18.5513L6.42676 18.5435C5.95716 18.5142 5.51888 18.3977 5.1123 18.1929L4.91211 18.0825C4.45027 17.8096 4.07099 17.4543 3.77441 17.0161L3.65234 16.8228C3.34034 16.2948 3.18359 15.7108 3.18359 15.0708Z" fill="white"/>
<path d="M18.1064 26.143C18.0531 26.143 17.9998 26.1327 17.9483 26.1138C17.8383 26.0708 17.7506 25.9866 17.7025 25.8783L15.1347 19.9417L11.9395 22.9444C11.8123 23.0647 11.625 23.0956 11.4634 23.0269C11.3036 22.9581 11.1987 22.7983 11.1987 22.623V8.10299C11.1987 7.92767 11.3019 7.76955 11.4634 7.69908C11.6233 7.63033 11.8106 7.66127 11.9395 7.78158L22.4995 17.6369C22.6267 17.7555 22.6714 17.9394 22.6147 18.1027C22.5579 18.2677 22.4101 18.3828 22.2365 18.3983L17.7558 18.7833L20.4422 24.6408C20.4903 24.7456 20.4954 24.8677 20.4542 24.9777C20.4129 25.0877 20.3322 25.1753 20.2256 25.2235L18.2886 26.1035C18.2301 26.1292 18.17 26.143 18.1064 26.143Z" fill="white"/>
<path d="M11.4634 7.69921C11.6232 7.63046 11.811 7.66093 11.9399 7.78125L22.4995 17.6367L22.5435 17.6846C22.6362 17.8014 22.6643 17.9598 22.6147 18.1025C22.5581 18.2675 22.4103 18.3829 22.2368 18.3984L17.7554 18.7832L20.4419 24.6406C20.49 24.7454 20.4957 24.8676 20.4546 24.9775L20.4165 25.0557C20.3714 25.129 20.3059 25.1875 20.2261 25.2236L18.2886 26.1035L18.1997 26.1328C18.1693 26.1395 18.1379 26.1426 18.106 26.1426C18.0795 26.1425 18.0531 26.1406 18.0269 26.1357L17.9487 26.1133C17.8663 26.0811 17.7957 26.0264 17.7456 25.9551L17.7026 25.8779L15.1343 19.9414L11.9399 22.9443C11.8286 23.0496 11.6708 23.0864 11.5249 23.0478L11.4634 23.0273C11.3234 22.9671 11.2258 22.8366 11.2036 22.6875L11.1987 22.623V8.10253C11.1989 7.92743 11.302 7.76964 11.4634 7.69921ZM12.1987 21.3281L15.4868 18.2383L18.3931 24.957L19.2983 24.5459L16.2544 17.9082L20.897 17.5098L12.1987 9.39062V21.3281Z" fill="black"/>
<path d="M60.8423 23.9588C59.7383 23.9588 58.7303 23.6748 57.8183 23.1068C56.9143 22.5388 56.1903 21.7788 55.6463 20.8268C55.1103 19.8668 54.8423 18.8068 54.8423 17.6468C54.8423 16.7668 54.9983 15.9468 55.3103 15.1868C55.6223 14.4188 56.0503 13.7468 56.5943 13.1708C57.1463 12.5868 57.7863 12.1308 58.5143 11.8028C59.2423 11.4748 60.0183 11.3108 60.8423 11.3108C61.9463 11.3108 62.9503 11.5948 63.8543 12.1628C64.7663 12.7308 65.4903 13.4948 66.0263 14.4548C66.5703 15.4148 66.8423 16.4788 66.8423 17.6468C66.8423 18.5188 66.6863 19.3348 66.3743 20.0948C66.0623 20.8548 65.6303 21.5268 65.0783 22.1108C64.5343 22.6868 63.8983 23.1388 63.1703 23.4668C62.4503 23.7948 61.6743 23.9588 60.8423 23.9588ZM60.8423 21.9428C61.5943 21.9428 62.2703 21.7468 62.8703 21.3548C63.4783 20.9548 63.9543 20.4308 64.2983 19.7828C64.6503 19.1268 64.8263 18.4148 64.8263 17.6468C64.8263 16.8628 64.6463 16.1428 64.2863 15.4868C63.9343 14.8308 63.4583 14.3068 62.8583 13.9148C62.2583 13.5228 61.5863 13.3268 60.8423 13.3268C60.0903 13.3268 59.4143 13.5268 58.8143 13.9268C58.2143 14.3188 57.7383 14.8428 57.3863 15.4988C57.0343 16.1548 56.8583 16.8708 56.8583 17.6468C56.8583 18.4468 57.0383 19.1748 57.3983 19.8308C57.7583 20.4788 58.2423 20.9948 58.8503 21.3788C59.4583 21.7548 60.1223 21.9428 60.8423 21.9428Z" fill="black"/>
<path d="M54.1612 23.6467H51.8452L48.6532 18.1387L46.4452 20.7787V23.6467H44.4292V5.64673H46.4452V17.6467L51.4732 11.6467H54.1012L50.0212 16.5067L54.1612 23.6467Z" fill="black"/>
<path d="M39.4607 11.6468H41.4767V23.6468H39.4607V11.6468ZM40.4927 9.69083C40.1727 9.69083 39.9047 9.58684 39.6887 9.37884C39.4727 9.17084 39.3647 8.91084 39.3647 8.59884C39.3647 8.28684 39.4727 8.02684 39.6887 7.81884C39.9047 7.61084 40.1687 7.50684 40.4807 7.50684C40.7927 7.50684 41.0567 7.61084 41.2727 7.81884C41.4887 8.02684 41.5967 8.28684 41.5967 8.59884C41.5967 8.91084 41.4887 9.17084 41.2727 9.37884C41.0647 9.58684 40.8047 9.69083 40.4927 9.69083Z" fill="black"/>
<path d="M27.0386 23.6467V6.84668H32.5826C33.4866 6.84668 34.2986 7.06668 35.0186 7.50668C35.7466 7.94668 36.3226 8.54268 36.7466 9.29468C37.1786 10.0387 37.3946 10.8707 37.3946 11.7907C37.3946 12.7267 37.1746 13.5707 36.7346 14.3227C36.3026 15.0667 35.7186 15.6587 34.9826 16.0987C34.2546 16.5307 33.4546 16.7467 32.5826 16.7467H29.0546V23.6467H27.0386ZM29.0546 14.7307H32.4026C32.9466 14.7307 33.4426 14.5987 33.8906 14.3347C34.3466 14.0627 34.7066 13.6987 34.9706 13.2427C35.2426 12.7787 35.3786 12.2587 35.3786 11.6827C35.3786 11.0987 35.2426 10.5787 34.9706 10.1227C34.7066 9.65868 34.3466 9.29468 33.8906 9.03068C33.4426 8.75868 32.9466 8.62268 32.4026 8.62268H29.0546V14.7307Z" fill="black"/>
</svg>
